name C:\Users\u0101727\Documents\MyRepositories\upper-imu-dc\Results\main_tracking\Case_31\FLX01_angularVelocities_groundFrame.mot
datacolumns 4
datarows 82
range 5.01000000 5.82000000
endheader 
time	radius_imu_x	radius_imu_y	radius_imu_z	
          5.01000000	          0.69992424	         -0.00284514	         -1.23654509	
          5.02000000	          0.59418340	          0.04583869	         -1.25678993	
          5.03000000	          0.45874209	          0.10672047	         -1.28865136	
          5.04000000	          0.30671141	          0.17680400	         -1.32697674	
          5.05000000	          0.16528776	          0.24808941	         -1.36142077	
          5.06000000	          0.06496534	          0.31015400	         -1.38049170	
          5.07000000	          0.02715660	          0.35416780	         -1.37624822	
          5.08000000	          0.05646554	          0.37625714	         -1.34726877	
          5.09000000	          0.14095132	          0.37850719	         -1.29856032	
          5.10000000	          0.25898043	          0.36737579	         -1.23889564	
          5.11000000	          0.38777995	          0.35087935	         -1.17745808	
          5.12000000	          0.50874560	          0.33648844	         -1.12173956	
          5.13000000	          0.60793074	          0.33073869	         -1.07734698	
          5.14000000	          0.67489597	          0.33957860	         -1.04850478	
          5.15000000	          0.70443320	          0.36747709	         -1.03747100	
          5.16000000	          0.70139235	          0.41482626	         -1.04271297	
          5.17000000	          0.68352292	          0.47575578	         -1.05776483	
          5.18000000	          0.67715512	          0.53914301	         -1.07276302	
          5.19000000	          0.70633691	          0.59328654	         -1.07844410	
          5.20000000	          0.78149780	          0.63182448	         -1.07031062	
          5.21000000	          0.89352287	          0.65788211	         -1.05078780	
          5.22000000	          1.01526290	          0.68481736	         -1.02868773	
          5.23000000	          1.10944335	          0.73332096	         -1.01640588	
          5.24000000	          1.14058022	          0.82544276	         -1.02568559	
          5.25000000	          1.08728900	          0.97710946	         -1.06319196	
          5.26000000	          0.95013840	          1.19198556	         -1.12764258	
          5.27000000	          0.75140073	          1.45953235	         -1.20987907	
          5.28000000	          0.52725550	          1.75798178	         -1.29573754	
          5.29000000	          0.31651395	          2.06056521	         -1.37026078	
          5.30000000	          0.15042807	          2.34240023	         -1.42158199	
          5.31000000	          0.04678467	          2.58564943	         -1.44327819	
          5.32000000	          0.00923231	          2.78161633	         -1.43478382	
          5.33000000	          0.03048911	          2.92995942	         -1.40026455	
          5.34000000	          0.09703302	          3.03623568	         -1.34673844	
          5.35000000	          0.19322525	          3.10917027	         -1.28220286	
          5.36000000	          0.30392057	          3.15857176	         -1.21425667	
          5.37000000	          0.41572865	          3.19406907	         -1.14932769	
          5.38000000	          0.51754501	          3.22439004	         -1.09234531	
          5.39000000	          0.60089323	          3.25681485	         -1.04662036	
          5.40000000	          0.66022271	          3.29668742	         -1.01382410	
          5.41000000	          0.69371500	          3.34645262	         -0.99381005	
          5.42000000	          0.70381100	          3.40487693	         -0.98454099	
          5.43000000	          0.69691363	          3.46694915	         -0.98226356	
          5.44000000	          0.68210652	          3.52476864	         -0.98212533	
          5.45000000	          0.66898332	          3.56945533	         -0.97920371	
          5.46000000	          0.66550180	          3.59321956	         -0.96954516	
          5.47000000	          0.67646842	          3.59099309	         -0.95091336	
          5.48000000	          0.70312252	          3.56107482	         -0.92305441	
          5.49000000	          0.74371916	          3.50479527	         -0.88755897	
          5.50000000	          0.79495993	          3.42437514	         -0.84620416	
          5.51000000	          0.85177264	          3.32639607	         -0.80363339	
          5.52000000	          0.91176058	          3.21422166	         -0.76329880	
          5.53000000	          0.97131558	          3.09002679	         -0.72430865	
          5.54000000	          1.02547760	          2.96164466	         -0.68776858	
          5.55000000	          1.06994086	          2.83905688	         -0.65833130	
          5.56000000	          1.10352618	          2.72662700	         -0.63582930	
          5.57000000	          1.12677165	          2.62865084	         -0.61909657	
          5.58000000	          1.14177005	          2.54735933	         -0.60342193	
          5.59000000	          1.14690024	          2.49859320	         -0.59689614	
          5.60000000	          1.11952903	          2.51627367	         -0.62711585	
          5.61000000	          1.08045337	          2.57025556	         -0.67526742	
          5.62000000	          1.05905704	          2.61706431	         -0.67717045	
          5.63000000	          1.02144637	          2.68842582	         -0.70522484	
          5.64000000	          0.98275045	          2.75898832	         -0.72438319	
          5.65000000	          0.94673141	          2.81990393	         -0.73526667	
          5.66000000	          0.91379826	          2.87006803	         -0.73908348	
          5.67000000	          0.88176405	          2.91427722	         -0.73950952	
          5.68000000	          0.84693543	          2.96189028	         -0.74124094	
          5.69000000	          0.80419221	          3.02719600	         -0.75048940	
          5.70000000	          0.74801521	          3.12750502	         -0.77430006	
          5.71000000	          0.67375950	          3.28032222	         -0.81950553	
          5.72000000	          0.57906186	          3.49968798	         -0.89123858	
          5.73000000	          0.46501219	          3.79241578	         -0.99136156	
          5.74000000	          0.33681233	          4.15483172	         -1.11714234	
          5.75000000	          0.20369955	          4.57066966	         -1.26054853	
          5.76000000	          0.07802207	          5.01077206	         -1.40848585	
          5.77000000	         -0.02662968	          5.43556189	         -1.54430674	
          5.78000000	         -0.09774288	          5.79983734	         -1.65028264	
          5.79000000	         -0.12764309	          6.06420169	         -1.71229986	
          5.80000000	         -0.11191486	          6.19186569	         -1.71909360	
          5.81000000	         -0.06811776	          6.21672084	         -1.68554775	
          5.82000000	         -0.01820974	          6.19902051	         -1.63461981	
